<svg viewBox="0 0 100 100" xmlns="http://www.w3.org/2000/svg">
  <!-- Background container -->
  <rect x="10" y="10" width="80" height="80" rx="16" fill="#F8F9FA" stroke="#34B27B" stroke-width="3"/>
  
  <!-- Main icon symbol - Image frame with pixels -->
  <g transform="translate(50, 50)">
    <!-- Image frame -->
    <rect x="-24" y="-24" width="48" height="36" rx="4" fill="#11181C" stroke="#34B27B" stroke-width="2"/>
    <rect x="-20" y="-20" width="40" height="28" fill="#F8F9FA"/>
    
    <!-- Pixel grid pattern inside frame -->
    <g fill="#34B27B" opacity="0.7">
      <rect x="-16" y="-16" width="4" height="4"/>
      <rect x="-10" y="-16" width="4" height="4"/>
      <rect x="-4" y="-16" width="4" height="4"/>
      <rect x="2" y="-16" width="4" height="4"/>
      <rect x="8" y="-16" width="4" height="4"/>
      <rect x="14" y="-16" width="4" height="4"/>
      
      <rect x="-16" y="-10" width="4" height="4"/>
      <rect x="-4" y="-10" width="4" height="4"/>
      <rect x="8" y="-10" width="4" height="4"/>
      <rect x="14" y="-10" width="4" height="4"/>
      
      <rect x="-16" y="-4" width="4" height="4"/>
      <rect x="-10" y="-4" width="4" height="4"/>
      <rect x="2" y="-4" width="4" height="4"/>
      <rect x="14" y="-4" width="4" height="4"/>
      
      <rect x="-10" y="2" width="4" height="4"/>
      <rect x="-4" y="2" width="4" height="4"/>
      <rect x="8" y="2" width="4" height="4"/>
    </g>
    
    <!-- Magic wand/editing tool -->
    <g transform="rotate(-45) translate(20, -20)">
      <line x1="0" y1="0" x2="16" y2="0" stroke="#11181C" stroke-width="3" stroke-linecap="round"/>
      <circle cx="18" cy="0" r="3" fill="#34B27B"/>
      <!-- Sparkle effects -->
      <g fill="#000000" opacity="0.8">
        <circle cx="10" cy="-4" r="1.2"/>
        <circle cx="12" cy="3" r="1"/>
        <circle cx="20" cy="-3" r="1.2"/>
        <circle cx="22" cy="2" r="1"/>
      </g>
    </g>
  </g>
</svg>